<mxfile host="65bd71144e">
    <diagram id="6GGwwaXmXN7I2rmmZUAq" name="Page-1">
        <mxGraphModel dx="1727" dy="749" grid="1" gridSize="10" guides="1" tooltips="1" connect="1" arrows="1" fold="1" page="1" pageScale="1" pageWidth="827" pageHeight="1169" math="0" shadow="0">
            <root>
                <mxCell id="0"/>
                <mxCell id="1" parent="0"/>
                <mxCell id="q51EdbNp2aHsAlou9teM-16" style="edgeStyle=elbowEdgeStyle;html=1;entryX=0;entryY=0.5;entryDx=0;entryDy=0;" edge="1" parent="1" source="q51EdbNp2aHsAlou9teM-2" target="q51EdbNp2aHsAlou9teM-4">
                    <mxGeometry relative="1" as="geometry"/>
                </mxCell>
                <mxCell id="q51EdbNp2aHsAlou9teM-17" style="edgeStyle=elbowEdgeStyle;html=1;entryX=0;entryY=0.5;entryDx=0;entryDy=0;" edge="1" parent="1" source="q51EdbNp2aHsAlou9teM-2" target="q51EdbNp2aHsAlou9teM-10">
                    <mxGeometry relative="1" as="geometry"/>
                </mxCell>
                <mxCell id="q51EdbNp2aHsAlou9teM-18" style="edgeStyle=elbowEdgeStyle;html=1;entryX=0;entryY=0.5;entryDx=0;entryDy=0;" edge="1" parent="1" source="q51EdbNp2aHsAlou9teM-2" target="q51EdbNp2aHsAlou9teM-8">
                    <mxGeometry relative="1" as="geometry"/>
                </mxCell>
                <mxCell id="q51EdbNp2aHsAlou9teM-19" style="edgeStyle=elbowEdgeStyle;html=1;entryX=0;entryY=0.5;entryDx=0;entryDy=0;" edge="1" parent="1" source="q51EdbNp2aHsAlou9teM-2" target="2">
                    <mxGeometry relative="1" as="geometry"/>
                </mxCell>
                <mxCell id="q51EdbNp2aHsAlou9teM-2" value="&lt;font style=&quot;font-size: 30px&quot;&gt;NGINX&lt;/font&gt;" style="rounded=0;whiteSpace=wrap;html=1;fillColor=#60a917;strokeColor=#2D7600;fontColor=#ffffff;" parent="1" vertex="1">
                    <mxGeometry x="-200" y="560" width="120" height="60" as="geometry"/>
                </mxCell>
                <mxCell id="q51EdbNp2aHsAlou9teM-3" value="&lt;font style=&quot;font-size: 30px&quot;&gt;admin-frontend&lt;br&gt;(React)&lt;br&gt;&lt;/font&gt;" style="rounded=0;whiteSpace=wrap;html=1;fillColor=#1ba1e2;strokeColor=#006EAF;fontColor=#ffffff;" vertex="1" parent="1">
                    <mxGeometry x="130" y="230" width="230" height="90" as="geometry"/>
                </mxCell>
                <mxCell id="q51EdbNp2aHsAlou9teM-4" value="&lt;font style=&quot;font-size: 30px&quot;&gt;NGINX&lt;/font&gt;" style="rounded=0;whiteSpace=wrap;html=1;fillColor=#60a917;strokeColor=#2D7600;fontColor=#ffffff;" vertex="1" parent="1">
                    <mxGeometry x="10" y="230" width="120" height="90" as="geometry"/>
                </mxCell>
                <mxCell id="q51EdbNp2aHsAlou9teM-5" value="&lt;font style=&quot;font-size: 20px&quot;&gt;routing &lt;br&gt;container&amp;nbsp;&lt;/font&gt;" style="text;html=1;strokeColor=none;fillColor=none;align=center;verticalAlign=middle;whiteSpace=wrap;rounded=0;" vertex="1" parent="1">
                    <mxGeometry x="-220" y="640" width="170" height="20" as="geometry"/>
                </mxCell>
                <mxCell id="q51EdbNp2aHsAlou9teM-6" value="&lt;span style=&quot;font-size: 20px&quot;&gt;admin-frontend container&lt;/span&gt;" style="text;html=1;strokeColor=none;fillColor=none;align=center;verticalAlign=middle;whiteSpace=wrap;rounded=0;" vertex="1" parent="1">
                    <mxGeometry x="90" y="340" width="170" height="20" as="geometry"/>
                </mxCell>
                <mxCell id="q51EdbNp2aHsAlou9teM-7" value="&lt;font style=&quot;font-size: 30px&quot;&gt;client-frontend&lt;br&gt;(NextJS)&lt;br&gt;&lt;/font&gt;" style="rounded=0;whiteSpace=wrap;html=1;fillColor=#6a00ff;strokeColor=#3700CC;fontColor=#ffffff;" vertex="1" parent="1">
                    <mxGeometry x="130" y="620" width="230" height="90" as="geometry"/>
                </mxCell>
                <mxCell id="q51EdbNp2aHsAlou9teM-8" value="&lt;font style=&quot;font-size: 30px&quot;&gt;NGINX&lt;/font&gt;" style="rounded=0;whiteSpace=wrap;html=1;fillColor=#60a917;strokeColor=#2D7600;fontColor=#ffffff;" vertex="1" parent="1">
                    <mxGeometry x="10" y="620" width="120" height="90" as="geometry"/>
                </mxCell>
                <mxCell id="q51EdbNp2aHsAlou9teM-9" value="&lt;span style=&quot;font-size: 20px&quot;&gt;client-frontend container&lt;/span&gt;" style="text;html=1;strokeColor=none;fillColor=none;align=center;verticalAlign=middle;whiteSpace=wrap;rounded=0;" vertex="1" parent="1">
                    <mxGeometry x="90" y="730" width="170" height="50" as="geometry"/>
                </mxCell>
                <mxCell id="q51EdbNp2aHsAlou9teM-23" style="edgeStyle=elbowEdgeStyle;html=1;entryX=0;entryY=0.5;entryDx=0;entryDy=0;" edge="1" parent="1" source="q51EdbNp2aHsAlou9teM-10" target="q51EdbNp2aHsAlou9teM-21">
                    <mxGeometry relative="1" as="geometry"/>
                </mxCell>
                <mxCell id="q51EdbNp2aHsAlou9teM-10" value="&lt;font style=&quot;font-size: 30px&quot;&gt;admin-backend&lt;br&gt;(Express)&lt;br&gt;&lt;/font&gt;" style="rounded=0;whiteSpace=wrap;html=1;fillColor=#f0a30a;strokeColor=#BD7000;fontColor=#000000;" vertex="1" parent="1">
                    <mxGeometry x="10" y="400" width="230" height="90" as="geometry"/>
                </mxCell>
                <mxCell id="7" style="edgeStyle=orthogonalEdgeStyle;html=1;entryX=0.431;entryY=1.061;entryDx=0;entryDy=0;entryPerimeter=0;fontSize=21;" edge="1" parent="1" source="2" target="q51EdbNp2aHsAlou9teM-21">
                    <mxGeometry relative="1" as="geometry"/>
                </mxCell>
                <mxCell id="2" value="&lt;font style=&quot;font-size: 30px&quot;&gt;client-backend&lt;br&gt;(Hapi)&lt;br&gt;&lt;/font&gt;" style="rounded=0;whiteSpace=wrap;html=1;fillColor=#a20025;strokeColor=#6F0000;fontColor=#ffffff;" vertex="1" parent="1">
                    <mxGeometry x="10" y="820" width="230" height="90" as="geometry"/>
                </mxCell>
                <mxCell id="3" value="Express Container" style="text;html=1;align=center;verticalAlign=middle;resizable=0;points=[];autosize=1;strokeColor=none;fontSize=21;" vertex="1" parent="1">
                    <mxGeometry y="495" width="190" height="30" as="geometry"/>
                </mxCell>
                <mxCell id="q51EdbNp2aHsAlou9teM-11" value="&lt;span style=&quot;font-size: 20px&quot;&gt;client-backend container&lt;/span&gt;" style="text;html=1;strokeColor=none;fillColor=none;align=center;verticalAlign=middle;whiteSpace=wrap;rounded=0;" vertex="1" parent="1">
                    <mxGeometry x="30" y="920" width="170" height="50" as="geometry"/>
                </mxCell>
                <mxCell id="q51EdbNp2aHsAlou9teM-20" value="&lt;font style=&quot;font-size: 25px&quot;&gt;CLOUDINARY&lt;/font&gt;" style="rounded=0;whiteSpace=wrap;html=1;fillColor=#e51400;strokeColor=#B20000;fontColor=#ffffff;" vertex="1" parent="1">
                    <mxGeometry x="520" y="415" width="220" height="60" as="geometry"/>
                </mxCell>
                <mxCell id="q51EdbNp2aHsAlou9teM-21" value="&lt;font style=&quot;font-size: 25px&quot;&gt;POSTGRES&lt;/font&gt;" style="rounded=0;whiteSpace=wrap;html=1;fillColor=#a0522d;strokeColor=#6D1F00;fontColor=#ffffff;" vertex="1" parent="1">
                    <mxGeometry x="520" y="590" width="220" height="60" as="geometry"/>
                </mxCell>
                <mxCell id="8" value="" style="shape=flexArrow;endArrow=classic;startArrow=classic;html=1;fontSize=21;entryX=0;entryY=0.5;entryDx=0;entryDy=0;exitX=1;exitY=0.5;exitDx=0;exitDy=0;" edge="1" parent="1" source="q51EdbNp2aHsAlou9teM-10" target="q51EdbNp2aHsAlou9teM-20">
                    <mxGeometry width="100" height="100" relative="1" as="geometry">
                        <mxPoint x="250" y="450" as="sourcePoint"/>
                        <mxPoint x="440" y="550" as="targetPoint"/>
                    </mxGeometry>
                </mxCell>
                <mxCell id="q51EdbNp2aHsAlou9teM-25" value="&lt;font style=&quot;font-size: 25px&quot;&gt;In developement we will have a posgres container and in production we will use AWS RDS instance&lt;/font&gt;" style="text;html=1;strokeColor=none;fillColor=none;align=center;verticalAlign=middle;whiteSpace=wrap;rounded=0;" vertex="1" parent="1">
                    <mxGeometry x="480" y="750" width="280" height="20" as="geometry"/>
                </mxCell>
                <mxCell id="q51EdbNp2aHsAlou9teM-26" value="&lt;font style=&quot;font-size: 25px&quot;&gt;In developement&amp;nbsp; we will not use NGINX for both react and nextjs&lt;/font&gt;" style="text;html=1;strokeColor=none;fillColor=none;align=left;verticalAlign=middle;whiteSpace=wrap;rounded=0;" vertex="1" parent="1">
                    <mxGeometry x="10" y="170" width="280" height="20" as="geometry"/>
                </mxCell>
                <mxCell id="q51EdbNp2aHsAlou9teM-27" value="" style="points=[[0,0,0],[0.25,0,0],[0.5,0,0],[0.75,0,0],[1,0,0],[0,1,0],[0.25,1,0],[0.5,1,0],[0.75,1,0],[1,1,0],[0,0.25,0],[0,0.5,0],[0,0.75,0],[1,0.25,0],[1,0.5,0],[1,0.75,0]];outlineConnect=0;fontColor=#232F3E;gradientColor=#945DF2;gradientDirection=north;fillColor=#5A30B5;strokeColor=#ffffff;dashed=0;verticalLabelPosition=bottom;verticalAlign=top;align=center;html=1;fontSize=12;fontStyle=0;aspect=fixed;shape=mxgraph.aws4.resourceIcon;resIcon=mxgraph.aws4.sql_workbench;" vertex="1" parent="1">
                    <mxGeometry x="740" y="582" width="68" height="68" as="geometry"/>
                </mxCell>
            </root>
        </mxGraphModel>
    </diagram>
</mxfile>